# xmcd
#
# Track frame offsets:
#	150
#	25575
#	44325
#	59925
#	90452
#	106169
#	124268
#	141804
#	156279
#	180841
#	196641
#	218461
#	235352
#	250276
#	265914
#	284456
#	305052
#	321700
#
# Disc length: 4515 seconds
#
# Revision: 0
# Processed by: cddbd v1.5.2PL0 Copyright (c) Steve Scherf et al.
# Submitted via: EasyCDDAExtractor 16.0.8.2
#
DISCID=0611a112
DTITLE=Καμπίτσης Δημήτρης - Το δημοτικό τραγούδι είναι εδώ 2.4 Της τάβλας
DYEAR=1900
DGENRE=Παραδοσιακή
TTITLE0=Δροσούλα
TTITLE1=Βγήκε ο ήλιος κόκκινος
TTITLE2=Σαν πας πουλί μου στο Μωριά
TTITLE3=Κάτω στα δασά πλατάνια (Διαμαντούλα)
TTITLE4=Σήκωσ' απάνω Γιάννο μου
TTITLE5=Θρήνος μεγάλος έγινε
TTITLE6=Με γέλασαν μιά χαραυγή
TTITLE7=Νύχτωσε και βράδιασε
TTITLE8=Τώρα τα πουλιά
TTITLE9=Βαστάτε τούρκοι τ' άλογα
TTITLE10=Τζαβέλαινα
TTITLE11='Κείνο τ' αστέρι το λαμπρό
TTITLE12=Καλότυχα είναι τα βουνά
TTITLE13=Ξύπνα πουλί μου το πρωΐ
TTITLE14=Όλγα
TTITLE15=Ασημούλα
TTITLE16=Μήτραινα
TTITLE17=Ν' αναστενάξω δεν μ' ακούς
EXTD=
EXTT0=
EXTT1=
EXTT2=
EXTT3=
EXTT4=
EXTT5=
EXTT6=
EXTT7=
EXTT8=
EXTT9=
EXTT10=
EXTT11=
EXTT12=
EXTT13=
EXTT14=
EXTT15=
EXTT16=
EXTT17=
PLAYORDER=
